<?xml version="1.0" encoding="utf-8"?>
<!-- Generator: Adobe Illustrator 15.0.0, SVG Export Plug-In . SVG Version: 6.00 Build 0)  -->
<!DOCTYPE svg PUBLIC "-//W3C//DTD SVG 1.1 Basic//EN" "http://www.w3.org/Graphics/SVG/1.1/DTD/svg11-basic.dtd">
<svg version="1.1" baseProfile="basic" id="Layer_1"
	 xmlns="http://www.w3.org/2000/svg" xmlns:xlink="http://www.w3.org/1999/xlink" x="0px" y="0px" width="21.924px"
	 height="19.187px" viewBox="1.037 2.406 21.924 19.187" xml:space="preserve">
<g>
	<path d="M21.594,10.631l-4.111,2.738c0-0.832-0.375-1.563-0.963-2.07c1.394-0.837,2.336-2.351,2.336-4.098
		c0-2.649-2.146-4.795-4.799-4.795c-2.651,0-4.793,2.146-4.793,4.795c0,1.351,0.553,2.559,1.446,3.43H8.191
		c0.656-0.732,1.07-1.683,1.07-2.742c0-2.271-1.845-4.112-4.112-4.112c-2.274,0-4.112,1.841-4.112,4.112
		c0,1.238,0.557,2.335,1.427,3.09c-0.848,0.469-1.427,1.358-1.427,2.391v5.479c0,1.518,1.224,2.743,2.739,2.743h10.967
		c1.515,0,2.737-1.228,2.737-2.743v-0.683l4.111,3.426c0.762,0,1.369-0.61,1.369-1.368V12C22.963,11.24,22.354,10.631,21.594,10.631
		z M2.407,7.889c0-1.513,1.228-2.743,2.742-2.743c1.516,0,2.739,1.23,2.739,2.743c0,1.514-1.224,2.742-2.739,2.742
		C3.635,10.631,2.407,9.402,2.407,7.889z M16.111,18.85c0,0.762-0.612,1.375-1.368,1.375H3.776c-0.756,0-1.369-0.613-1.369-1.375
		V13.37c0-0.753,0.614-1.37,1.369-1.37h10.967c0.756,0,1.368,0.617,1.368,1.369V18.85z M14.057,10.638
		c-1.895,0-3.438-1.541-3.438-3.437c0-1.895,1.543-3.429,3.438-3.429c1.896,0,3.438,1.534,3.438,3.429
		C17.493,9.097,15.951,10.638,14.057,10.638z M21.594,13.027v6.295c0,0.033,0,0.051,0,0.047v0.854l-4.111-3.428v-1.37
		c0-0.36,0-0.272,0-0.687L21.594,12C21.594,12.962,21.594,12.459,21.594,13.027z"/>
	<path d="M13.54,17.398h-2.738c-0.383,0-0.688,0.303-0.688,0.678c0,0.384,0.305,0.689,0.688,0.689h2.738
		c0.381,0,0.687-0.308,0.687-0.689C14.227,17.701,13.921,17.398,13.54,17.398z"/>
</g>
</svg>
