<?xml version="1.0" encoding="utf-8"?>
<!-- Generator: Adobe Illustrator 15.0.0, SVG Export Plug-In . SVG Version: 6.00 Build 0)  -->
<!DOCTYPE svg PUBLIC "-//W3C//DTD SVG 1.1 Basic//EN" "http://www.w3.org/Graphics/SVG/1.1/DTD/svg11-basic.dtd">
<svg version="1.1" baseProfile="basic" id="Layer_1"
	 xmlns="http://www.w3.org/2000/svg" xmlns:xlink="http://www.w3.org/1999/xlink" x="0px" y="0px" width="24px" height="24px"
	 viewBox="0 0 24 24" xml:space="preserve">
<g>
	<path d="M11.999,0c2.597,0,4.735,1.969,5.116,4.521h-3.116c-0.442,0-0.8,0.359-0.8,0.801c0,0.443,0.357,0.8,0.8,0.8h3.194v0.456
		h-3.194c-0.442,0-0.8,0.356-0.8,0.8c0,0.44,0.357,0.8,0.8,0.8h3.194v0.441h-3.194c-0.442,0-0.8,0.359-0.8,0.8
		c0,0.443,0.357,0.8,0.8,0.8h3.194v0.44h-3.194c-0.442,0-0.8,0.359-0.8,0.8c0,0.444,0.357,0.801,0.8,0.801h3.116
		c-0.381,2.557-2.52,4.524-5.116,4.524c-2.596,0-4.734-1.97-5.115-4.524h3.118c0.442,0,0.801-0.356,0.801-0.801
		c0-0.44-0.358-0.8-0.801-0.8H6.806v-0.44h3.196c0.442,0,0.801-0.356,0.801-0.8c0-0.44-0.358-0.8-0.801-0.8H6.806V8.178h3.196
		c0.442,0,0.801-0.359,0.801-0.8c0-0.443-0.358-0.8-0.801-0.8H6.806V6.122h3.196c0.442,0,0.801-0.356,0.801-0.8
		c0-0.441-0.358-0.801-0.801-0.801H6.884C7.265,1.969,9.402,0,11.999,0z"/>
	<path d="M20,8.619c-0.441,0-0.8,0.359-0.8,0.8v2.04c0,4.132-3.16,7.366-7.194,7.366c-4.041,0-7.207-3.234-7.207-7.366v-2.04
		c0-0.44-0.357-0.8-0.8-0.8s-0.8,0.359-0.8,0.8v2.04c0,4.754,3.458,8.525,8.006,8.926V23.2c0,0.44,0.358,0.8,0.8,0.8
		s0.8-0.359,0.8-0.8v-2.815c4.543-0.4,7.994-4.172,7.994-8.926v-2.04C20.8,8.979,20.441,8.619,20,8.619z"/>
</g>
<path d="M23.321,3.273"/>
<path d="M1.694,23.525"/>
<g>
	<path d="M17.589,4.549l1.989-1.991c0.313-0.31,0.819-0.312,1.133,0.002c0.312,0.312,0.312,0.819,0,1.13L18.72,5.681
		l-0.316,0.317L3.542,20.899c-0.313,0.312-0.819,0.312-1.131-0.001c-0.313-0.313-0.312-0.819,0-1.131L17.272,4.866"/>
</g>
<g>
	<path d="M18.089,5.022l1.989-1.991c0.313-0.31,0.819-0.312,1.133,0.002c0.312,0.312,0.312,0.819,0,1.13L19.22,6.154
		l-0.316,0.317L4.042,21.373c-0.313,0.311-0.819,0.311-1.131-0.002c-0.313-0.312-0.312-0.818,0-1.131L17.772,5.339"/>
</g>
</svg>
