<?xml version="1.0" encoding="utf-8"?>
<!-- Generator: Adobe Illustrator 15.0.0, SVG Export Plug-In  -->
<!DOCTYPE svg PUBLIC "-//W3C//DTD SVG 1.1 Basic//EN" "http://www.w3.org/Graphics/SVG/1.1/DTD/svg11-basic.dtd" [
	<!ENTITY ns_flows "http://ns.adobe.com/Flows/1.0/">
<!-- ]> -->
<svg version="1.1" baseProfile="basic"
	 xmlns="http://www.w3.org/2000/svg" xmlns:xlink="http://www.w3.org/1999/xlink" xmlns:a="http://ns.adobe.com/AdobeSVGViewerExtensions/3.0/"
	 x="0px" y="0px" width="30px" height="30px" viewBox="0 0 30 30" overflow="visible" enable-background="new 0 0 30 30"
	 xml:space="preserve">
<defs>
</defs>
<polyline fill="none" points="16.073,2.251 0.815,2.251 0.074,30.036 16.073,30.036 "/>
<polygon fill="#FDC721" points="28.071,28.819 0.223,28.819 0.223,0.222 28.071,0.222 28.071,2 2,2 2,27.042 28.071,27.042 "/>
<path fill="#FDC721" d="M28.293,29.042H0V0h28.293v2.222L10.25,2.179v24.598l18.043,0.043V29.042z M0.444,28.597h27.404v-1.333
	H1.777V1.777h26.071V0.444H0.444V28.597z"/>
<rect x="14.461" y="14.202" fill="#FDC721" width="8.728" height="0.636"/>
<rect x="14.432" y="13.47" fill="#FDC721" width="8.729" height="1.988"/>
<line fill="#FDC721" x1="14.49" y1="15.989" x2="27.758" y2="15.927"/>
<line fill="#FDC721" x1="14.49" y1="15.989" x2="23.188" y2="15.927"/>
<polyline fill="#FDC721" points="23.188,16.585 14.49,16.646 14.49,15.331 23.188,15.269 "/>
<line fill="#FDC721" x1="14.461" y1="15.874" x2="23.16" y2="15.812"/>
<rect x="14.461" y="13.5" fill="#FDC721" width="8.729" height="1.988"/>
<polygon fill="#FDC721" points="21.683,19.009 29.917,15.169 21.683,11.328 "/>
</svg>
