<?xml version="1.0" encoding="utf-8"?>
<!-- Generator: Adobe Illustrator 15.0.0, SVG Export Plug-In  -->
<!DOCTYPE svg PUBLIC "-//W3C//DTD SVG 1.1 Basic//EN" "http://www.w3.org/Graphics/SVG/1.1/DTD/svg11-basic.dtd" [
	<!ENTITY ns_flows "http://ns.adobe.com/Flows/1.0/">
<!-- ]> -->
<svg version="1.1" baseProfile="basic"
	 xmlns="http://www.w3.org/2000/svg" xmlns:xlink="http://www.w3.org/1999/xlink" xmlns:a="http://ns.adobe.com/AdobeSVGViewerExtensions/3.0/"
	 x="0px" y="0px" width="32px" height="34px" viewBox="0 0 32 34" overflow="visible" enable-background="new 0 0 32 34"
	 xml:space="preserve">
<defs>
</defs>
<path fill="#FDC721" d="M21.366,0.133c-0.415-0.21-0.912-0.169-1.287,0.106l-13.45,9.867C6.414,9.922,6.136,9.811,5.83,9.811H1.233
	C0.552,9.811,0,10.363,0,11.044v11.343c0,0.68,0.552,1.232,1.233,1.232H5.83c0.306,0,0.584-0.111,0.799-0.295l13.451,9.867
	c0.215,0.158,0.471,0.238,0.729,0.238c0.19,0,0.381-0.043,0.558-0.133c0.414-0.209,0.676-0.635,0.676-1.1L22.041,1.233
	C22.041,0.768,21.78,0.343,21.366,0.133z M4.598,21.154H2.466v-8.877h2.132V21.154z M7.062,20.584v-7.738l12.513-9.18v26.098
	L7.062,20.584z"/>
<path fill="#FDC721" d="M27.461,7.328c-0.554-0.396-1.324-0.267-1.72,0.287s-0.267,1.324,0.287,1.72
	c2.382,1.7,3.804,4.459,3.804,7.38c0,2.922-1.422,5.68-3.804,7.381c-0.554,0.395-0.683,1.165-0.287,1.719
	c0.241,0.338,0.62,0.518,1.005,0.518c0.248,0,0.498-0.075,0.715-0.23c3.028-2.161,4.837-5.67,4.837-9.387
	C32.298,12.999,30.489,9.49,27.461,7.328z"/>
</svg>
