<?xml version="1.0" encoding="utf-8"?>
<!-- Generator: Adobe Illustrator 15.0.0, SVG Export Plug-In  -->
<!DOCTYPE svg PUBLIC "-//W3C//DTD SVG 1.1 Basic//EN" "http://www.w3.org/Graphics/SVG/1.1/DTD/svg11-basic.dtd" [
	<!ENTITY ns_flows "http://ns.adobe.com/Flows/1.0/">
<!-- ]> -->
<svg version="1.1" baseProfile="basic"
	 xmlns="http://www.w3.org/2000/svg" xmlns:xlink="http://www.w3.org/1999/xlink" xmlns:a="http://ns.adobe.com/AdobeSVGViewerExtensions/3.0/"
	 x="0px" y="0px" width="42px" height="36px" viewBox="0 0 42 36" overflow="visible" enable-background="new 0 0 42 36"
	 xml:space="preserve">
<defs>
</defs>
<path fill="#E40522" d="M31.911,28.128v1.468h-19.16V14.384l-3.465-2.485v19.408c0,0.475,0.174,0.885,0.521,1.232
	c0.349,0.348,0.759,0.521,1.231,0.521h22.583c0.474,0,0.884-0.174,1.231-0.521c0.349-0.348,0.522-0.758,0.522-1.232v-0.693
	L31.911,28.128z"/>
<path fill="#E40522" d="M16.258,20.789v5.302h5.301c0.836,0,1.732-0.153,2.693-0.459c0.96-0.307,1.662-0.682,2.107-1.128
	l0.213-0.205l-9.709-6.964c-0.084,0.216-0.16,0.447-0.23,0.699C16.383,18.952,16.258,19.87,16.258,20.789z M22.686,22.75
	l-2.963-0.125l-0.126-2.881L22.686,22.75z"/>
<path fill="#E40522" d="M41.555,5.802l-5.011-5.009C36.016,0.264,35.404,0,34.707,0c-0.695,0-1.307,0.264-1.836,0.793l-6.178,6.178
	H11.039c-0.473,0-0.883,0.174-1.231,0.522C9.46,7.841,9.286,8.251,9.286,8.725v1.052l3.465,2.486v-1.827h10.436l-5.398,5.44
	l2.868,2.058L31.244,7.347L35,11.104l-9.968,9.969l2.803,2.01l4.076-3.922v6.846l3.465,2.486V15.654l6.179-6.178
	c0.528-0.529,0.793-1.141,0.793-1.836C42.348,6.943,42.083,6.332,41.555,5.802z M36.252,9.893l-3.798-3.798l2.253-2.254l3.8,3.799
	L36.252,9.893z"/>
<line fill="#E40522" stroke="#E73E1E" stroke-width="2" stroke-miterlimit="10" x1="0.583" y1="6.46" x2="40.523" y2="35.11"/>
</svg>
